<svg xmlns="http://www.w3.org/2000/svg" width="174" height="15" viewBox="0 0 174 15" fill="none"><script xmlns=""/>
<path d="M31.4722 9.09882H43.6518L37.5544 2.01925L31.4722 9.09882ZM45.1891 10.8832H29.9379L27.4093 13.8267H24.4262L36.4197 0H41.4922L53.4979 13.8267H47.7268L45.1891 10.8832ZM121.509 9.09882H133.688L127.588 2.01925L121.509 9.09882ZM135.226 10.8832H119.974L117.446 13.8267H114.463L126.456 0H131.529L143.531 13.8267H137.76L135.226 10.8832ZM22.0775 0.00305088V6.74404C22.0775 8.92495 21.5773 10.2488 20.5402 11.3072C18.7314 13.1587 15.2603 13.8267 10.3525 13.8267H0V11.9721H9.5289C12.4541 11.9721 14.4276 11.4902 15.6202 10.3098C16.5231 9.41909 16.9287 8.17765 16.9287 6.32921V0.00305088H22.0775ZM75.9048 11.9813V7.47915H81.0261V13.8267H66.1288C63.3348 13.8267 61.1356 13.5033 59.4733 12.8323C56.7067 11.7159 55.4409 9.67531 55.4409 6.88741C55.4409 4.25506 56.8196 2.42798 58.5734 1.44581C60.4402 0.399579 62.5387 0 66.0404 0H80.5015V1.84538H67.6418C64.8844 1.84538 63.3836 2.26327 62.2398 3.19358C61.2241 4.0202 60.6811 5.25553 60.6811 6.91181C60.6811 8.62298 61.2515 9.88882 62.3374 10.7154C63.4843 11.5878 65.0308 11.9752 67.6845 11.9752L75.9048 11.9813ZM165.896 8.94631C167.829 8.88225 169.47 8.58943 170.733 7.90923C172.045 7.20463 172.67 5.87168 172.67 4.48993C172.67 2.64149 171.844 1.45801 170.34 0.796109C169.004 0.207415 167.351 0.00609942 164.062 0.00609942H148.104V13.8328H153.252V9.04086H160.015L167.729 13.8328H174L165.896 8.94631ZM163.394 1.74778C165.325 1.74778 166.179 1.92774 166.765 2.36697C167.323 2.78485 167.521 3.42235 167.521 4.41367V4.67294C167.521 5.56971 167.308 6.29566 166.652 6.75014C166.005 7.19548 165.103 7.29613 163.455 7.29613H153.252V1.74473H163.394V1.74778ZM112.193 0.00305088V6.8935C112.193 8.67789 111.998 10.0871 111.098 11.2645C109.634 13.1831 106.953 14.2872 99.4739 14.2872H99.3976C91.9581 14.2872 89.2617 13.1831 87.8007 11.2675C86.9009 10.0871 86.7087 8.67789 86.7087 6.8935V0.00609942H91.8575V6.69829C91.8575 8.49487 92.0832 9.55025 92.742 10.4775C93.8554 12.0453 95.777 12.6127 99.2329 12.6127H99.6691C103.284 12.6127 105.047 12.0453 106.16 10.4775C106.819 9.55025 107.045 8.44912 107.045 6.70439V0.00305088H112.193Z" fill="white"/>
<script xmlns=""/></svg>
